<svg xmlns="http://www.w3.org/2000/svg" width="48" height="48" viewBox="0 0 48 48">
  <g transform="translate(0,0)" opacity="1">
    
    <rect x="16" y="6" width="16" height="12" fill="#a040ff"/>
    <rect x="19" y="10" width="3" height="3" fill="#2a0060"/>
    <rect x="26" y="10" width="3" height="3" fill="#2a0060"/>
    <rect x="20" y="11" width="1" height="1" fill="#d080ff"/>
    <rect x="27" y="11" width="1" height="1" fill="#d080ff"/>
    <rect x="21" y="15" width="6" height="1" fill="#2a0060"/>
    <rect x="20" y="18" width="8" height="2" fill="#a040ff"/>
    <rect x="12" y="20" width="24" height="14" fill="#2a0060"/>
    <rect x="16" y="22" width="16" height="8" fill="#a040ff" opacity="0.7"/>
    <rect x="20" y="24" width="8" height="4" fill="#d080ff" opacity="0.4"/>
    <rect x="6" y="20" width="6" height="10" fill="#a040ff"/>
    <rect x="5" y="29" width="8" height="4" fill="#a040ff" opacity="0.8"/>
    <rect x="36" y="20" width="6" height="10" fill="#a040ff"/>
    <rect x="35" y="29" width="8" height="4" fill="#a040ff" opacity="0.8"/>
    
    <rect x="12" y="34" width="24" height="3" fill="#d080ff" opacity="0.5"/>
    <rect x="14" y="37" width="8" height="8" fill="#a040ff"/>
    <rect x="26" y="37" width="8" height="8" fill="#a040ff"/>
    <rect x="12" y="43" width="10" height="3" fill="#2a0060"/>
    <rect x="26" y="43" width="10" height="3" fill="#2a0060"/>
    
  </g>
</svg>